<svg width="24" height="23" viewBox="0 0 24 23" fill="none" xmlns="http://www.w3.org/2000/svg">
<path d="M5.78406 20.7013V8.02948C5.78406 7.39733 6.01405 6.86096 6.47405 6.42037C6.93404 5.97978 7.48028 5.75948 8.11278 5.75948H20.7339C21.3663 5.75948 21.9078 5.98457 22.3582 6.43474C22.8086 6.8849 23.0338 7.42607 23.0338 8.05822V17.2532L17.2839 23H8.08403C7.45153 23 6.91008 22.7749 6.45967 22.3247C6.00926 21.8746 5.78406 21.3334 5.78406 20.7013ZM0.0628838 4.89746C-0.0521146 4.2653 0.072467 3.69541 0.436629 3.18777C0.800791 2.68013 1.29912 2.36885 1.93161 2.25391L14.4089 0.0413772C15.0414 -0.0735595 15.6116 0.0509553 16.1195 0.414922C16.6275 0.778888 16.9389 1.27695 17.0539 1.9091L17.3414 3.46075H8.08403C6.81904 3.46075 5.73614 3.91092 4.83532 4.81125C3.9345 5.71159 3.48409 6.79391 3.48409 8.05822V19.0347C3.17743 18.8623 2.91389 18.6324 2.69347 18.3451C2.47306 18.0577 2.3341 17.7321 2.2766 17.3681L0.0628838 4.89746ZM20.7339 16.1038H17.2839C16.9581 16.1038 16.685 16.2139 16.4645 16.4342C16.2441 16.6545 16.1339 16.9275 16.1339 17.2532V20.7013L20.7339 16.1038Z" fill="white"/>
</svg>
