<svg width="24" height="23" viewBox="0 0 24 23" fill="none" xmlns="http://www.w3.org/2000/svg">
<path d="M2.57841 23C1.87526 23 1.2731 22.75 0.771942 22.2499C0.271637 21.7491 0.0214844 21.1472 0.0214844 20.4444V2.55556C0.0214844 1.85278 0.271637 1.25094 0.771942 0.750055C1.2731 0.250018 1.87526 0 2.57841 0H7.69226C8.39542 0 8.99758 0.250018 9.49873 0.750055C9.99904 1.25094 10.2492 1.85278 10.2492 2.55556V20.4444C10.2492 21.1472 9.99904 21.7491 9.49873 22.2499C8.99758 22.75 8.39542 23 7.69226 23H2.57841ZM15.363 8.94444C14.6599 8.94444 14.0582 8.694 13.5579 8.19311C13.0567 7.69307 12.8061 7.09167 12.8061 6.38889V2.55556C12.8061 1.85278 13.0567 1.25094 13.5579 0.750055C14.0582 0.250018 14.6599 0 15.363 0H20.4769C21.1801 0 21.7822 0.250018 22.2834 0.750055C22.7837 1.25094 23.0338 1.85278 23.0338 2.55556V6.38889C23.0338 7.09167 22.7837 7.69307 22.2834 8.19311C21.7822 8.694 21.1801 8.94444 20.4769 8.94444H15.363ZM15.363 23C14.6599 23 14.0582 22.75 13.5579 22.2499C13.0567 21.7491 12.8061 21.1472 12.8061 20.4444V14.0556C12.8061 13.3528 13.0567 12.7509 13.5579 12.2501C14.0582 11.75 14.6599 11.5 15.363 11.5H20.4769C21.1801 11.5 21.7822 11.75 22.2834 12.2501C22.7837 12.7509 23.0338 13.3528 23.0338 14.0556V20.4444C23.0338 21.1472 22.7837 21.7491 22.2834 22.2499C21.7822 22.75 21.1801 23 20.4769 23H15.363Z" fill="#979797"/>
</svg>
